<?xml version="1.0" encoding="UTF-8" standalone="no"?>
<!-- Created with Inkscape (http://www.inkscape.org/) -->

<svg
   width="210mm"
   height="297mm"
   viewBox="0 0 210 297"
   version="1.1"
   id="svg1"
   xml:space="preserve"
   inkscape:version="1.3 (0e150ed6c4, 2023-07-21)"
   sodipodi:docname="Fauxnix.svg"
   inkscape:export-filename="Ship2.svg"
   inkscape:export-xdpi="96"
   inkscape:export-ydpi="96"
   xmlns:inkscape="http://www.inkscape.org/namespaces/inkscape"
   xmlns:sodipodi="http://sodipodi.sourceforge.net/DTD/sodipodi-0.dtd"
   xmlns:xlink="http://www.w3.org/1999/xlink"
   xmlns="http://www.w3.org/2000/svg"
   xmlns:svg="http://www.w3.org/2000/svg"><sodipodi:namedview
     id="namedview1"
     pagecolor="#ffffff"
     bordercolor="#666666"
     borderopacity="1.0"
     inkscape:showpageshadow="2"
     inkscape:pageopacity="0.0"
     inkscape:pagecheckerboard="0"
     inkscape:deskcolor="#d1d1d1"
     inkscape:document-units="mm"
     inkscape:zoom="1.1848882"
     inkscape:cx="383.15852"
     inkscape:cy="692.89238"
     inkscape:window-width="1818"
     inkscape:window-height="1120"
     inkscape:window-x="2290"
     inkscape:window-y="88"
     inkscape:window-maximized="0"
     inkscape:current-layer="g193"
     showguides="true" /><defs
     id="defs1"><linearGradient
       id="linearGradient175"
       inkscape:collect="always"><stop
         style="stop-color:#d5d600;stop-opacity:1;"
         offset="0"
         id="stop174" /><stop
         style="stop-color:#0004d6;stop-opacity:1;"
         offset="0.28298771"
         id="stop175" /></linearGradient><linearGradient
       id="linearGradient149"
       inkscape:collect="always"><stop
         style="stop-color:#d5d600;stop-opacity:1;"
         offset="0"
         id="stop148" /><stop
         style="stop-color:#0004d6;stop-opacity:1;"
         offset="0.1834206"
         id="stop149" /></linearGradient><linearGradient
       id="linearGradient6"
       inkscape:collect="always"><stop
         style="stop-color:#0004d6;stop-opacity:1;"
         offset="0"
         id="stop6" /><stop
         style="stop-color:#0004d6;stop-opacity:0.49803922;"
         offset="0.61389524"
         id="stop8" /><stop
         style="stop-color:#0004d6;stop-opacity:1;"
         offset="0.90717542"
         id="stop9" /><stop
         style="stop-color:#0004d6;stop-opacity:1;"
         offset="0.96383828"
         id="stop10" /><stop
         style="stop-color:#0004d6;stop-opacity:0;"
         offset="1"
         id="stop7" /></linearGradient><linearGradient
       id="linearGradient2"
       inkscape:collect="always"><stop
         style="stop-color:#d5d600;stop-opacity:1;"
         offset="0"
         id="stop2" /><stop
         style="stop-color:#0004d6;stop-opacity:1;"
         offset="0.46697038"
         id="stop3" /></linearGradient><radialGradient
       inkscape:collect="always"
       xlink:href="#linearGradient6"
       id="radialGradient7"
       cx="27.209106"
       cy="164.26326"
       fx="27.209106"
       fy="164.26326"
       r="3.503603"
       gradientTransform="matrix(1,0,0,1.0714285,0,-11.733085)"
       gradientUnits="userSpaceOnUse" /><radialGradient
       inkscape:collect="always"
       xlink:href="#linearGradient2"
       id="radialGradient149"
       cx="106.23434"
       cy="133.26215"
       fx="106.23434"
       fy="133.26215"
       r="4.37958"
       gradientUnits="userSpaceOnUse" /><radialGradient
       inkscape:collect="always"
       xlink:href="#linearGradient2"
       id="radialGradient150"
       cx="159.95458"
       cy="166.30458"
       fx="159.95458"
       fy="166.30458"
       r="4.37958"
       gradientUnits="userSpaceOnUse" /><radialGradient
       inkscape:collect="always"
       xlink:href="#linearGradient2"
       id="radialGradient151"
       cx="104.29027"
       cy="169.71729"
       fx="104.29027"
       fy="169.71729"
       r="4.3795765"
       gradientTransform="translate(0,-1.3563195e-4)"
       gradientUnits="userSpaceOnUse" /><radialGradient
       inkscape:collect="always"
       xlink:href="#linearGradient2"
       id="radialGradient152"
       cx="147.98528"
       cy="81.042081"
       fx="147.98528"
       fy="81.042081"
       r="4.37958"
       gradientTransform="translate(0,4.6261332e-5)"
       gradientUnits="userSpaceOnUse" /><radialGradient
       inkscape:collect="always"
       xlink:href="#linearGradient2"
       id="radialGradient153"
       cx="39.416457"
       cy="70.765706"
       fx="39.416457"
       fy="70.765706"
       r="4.379319"
       gradientTransform="matrix(1,0,0,1.000059,0,-0.00417712)"
       gradientUnits="userSpaceOnUse" /><radialGradient
       inkscape:collect="always"
       xlink:href="#linearGradient2"
       id="radialGradient154"
       cx="78.727495"
       cy="136.67124"
       fx="78.727495"
       fy="136.67124"
       r="4.3795775"
       gradientTransform="translate(0,7.8016227e-5)"
       gradientUnits="userSpaceOnUse" /><radialGradient
       inkscape:collect="always"
       xlink:href="#linearGradient2"
       id="radialGradient155"
       cx="82.091372"
       cy="197.63316"
       fx="82.091372"
       fy="197.63316"
       r="4.3793195"
       gradientTransform="translate(0,-2.2564368e-5)"
       gradientUnits="userSpaceOnUse" /><radialGradient
       inkscape:collect="always"
       xlink:href="#linearGradient2"
       id="radialGradient156"
       cx="158.89624"
       cy="231.12749"
       fx="158.89624"
       fy="231.12749"
       r="4.379575"
       gradientUnits="userSpaceOnUse" /><radialGradient
       inkscape:collect="always"
       xlink:href="#linearGradient2"
       id="radialGradient157"
       cx="158.89624"
       cy="231.12749"
       fx="158.89624"
       fy="231.12749"
       r="4.379575"
       gradientUnits="userSpaceOnUse" /><radialGradient
       inkscape:collect="always"
       xlink:href="#linearGradient2"
       id="radialGradient158"
       cx="70.284857"
       cy="218.71481"
       fx="70.284857"
       fy="218.71481"
       r="4.379319"
       gradientTransform="matrix(1,0,0,1.0000585,0,-0.01278532)"
       gradientUnits="userSpaceOnUse" /><radialGradient
       inkscape:collect="always"
       xlink:href="#linearGradient175"
       id="radialGradient159"
       cx="132.78078"
       cy="187.30278"
       fx="132.78078"
       fy="187.30278"
       r="4.37932"
       gradientTransform="matrix(1,0,0,1.0000594,0,-0.01112016)"
       gradientUnits="userSpaceOnUse" /><radialGradient
       inkscape:collect="always"
       xlink:href="#linearGradient2"
       id="radialGradient160"
       cx="146.20658"
       cy="129.85641"
       fx="146.20658"
       fy="129.85641"
       r="4.37958"
       gradientTransform="matrix(1,0,0,0.99993949,0,0.00785736)"
       gradientUnits="userSpaceOnUse" /><radialGradient
       inkscape:collect="always"
       xlink:href="#linearGradient2"
       id="radialGradient161"
       cx="146.20658"
       cy="129.85641"
       fx="146.20658"
       fy="129.85641"
       r="4.37958"
       gradientTransform="matrix(1,0,0,0.99993949,0,0.00785736)"
       gradientUnits="userSpaceOnUse" /><radialGradient
       inkscape:collect="always"
       xlink:href="#linearGradient2"
       id="radialGradient162"
       cx="96.554313"
       cy="72.284477"
       fx="96.554313"
       fy="72.284477"
       r="4.379577"
       gradientTransform="translate(0)"
       gradientUnits="userSpaceOnUse" /><radialGradient
       inkscape:collect="always"
       xlink:href="#linearGradient2"
       id="radialGradient163"
       cx="30.699418"
       cy="121.33782"
       fx="30.699418"
       fy="121.33782"
       r="4.379578"
       gradientTransform="translate(0,8.31161e-5)"
       gradientUnits="userSpaceOnUse" /><radialGradient
       inkscape:collect="always"
       xlink:href="#linearGradient2"
       id="radialGradient164"
       cx="50.625592"
       cy="168.52253"
       fx="50.625592"
       fy="168.52253"
       r="4.379319"
       gradientTransform="matrix(1,0,0,1.0000596,0,-0.01004366)"
       gradientUnits="userSpaceOnUse" /><radialGradient
       inkscape:collect="always"
       xlink:href="#linearGradient2"
       id="radialGradient165"
       cx="183.25134"
       cy="65.109204"
       fx="183.25134"
       fy="65.109204"
       r="4.379575"
       gradientTransform="translate(0,-4.4599673e-5)"
       gradientUnits="userSpaceOnUse" /><radialGradient
       inkscape:collect="always"
       xlink:href="#linearGradient2"
       id="radialGradient166"
       cx="114.92218"
       cy="102.61105"
       fx="114.92218"
       fy="102.61105"
       r="4.379575"
       gradientTransform="matrix(1,0,0,0.99994178,0,0.00597451)"
       gradientUnits="userSpaceOnUse" /><radialGradient
       inkscape:collect="always"
       xlink:href="#linearGradient2"
       id="radialGradient167"
       cx="179.05238"
       cy="122.00625"
       fx="179.05238"
       fy="122.00625"
       r="4.37932"
       gradientUnits="userSpaceOnUse" /><radialGradient
       inkscape:collect="always"
       xlink:href="#linearGradient2"
       id="radialGradient168"
       cx="29.179615"
       cy="207.92374"
       fx="29.179615"
       fy="207.92374"
       r="4.3795775"
       gradientTransform="translate(0,1.1868939e-4)"
       gradientUnits="userSpaceOnUse" /><radialGradient
       inkscape:collect="always"
       xlink:href="#linearGradient2"
       id="radialGradient169"
       cx="120.0981"
       cy="227.37268"
       fx="120.0981"
       fy="227.37268"
       r="4.379575"
       gradientUnits="userSpaceOnUse" /><radialGradient
       inkscape:collect="always"
       xlink:href="#linearGradient2"
       id="radialGradient170"
       cx="118.91656"
       cy="210.24056"
       fx="118.91656"
       fy="210.24056"
       r="4.379575"
       gradientUnits="userSpaceOnUse" /><radialGradient
       inkscape:collect="always"
       xlink:href="#linearGradient2"
       id="radialGradient171"
       cx="134.34219"
       cy="49.470107"
       fx="134.34219"
       fy="49.470107"
       r="4.37958"
       gradientTransform="matrix(1,0,0,0.99994041,0,0.00294816)"
       gradientUnits="userSpaceOnUse" /><radialGradient
       inkscape:collect="always"
       xlink:href="#linearGradient149"
       id="radialGradient173"
       cx="15.929777"
       cy="45.453557"
       fx="15.929777"
       fy="45.453557"
       r="4.379578"
       gradientTransform="translate(0)"
       gradientUnits="userSpaceOnUse" /><radialGradient
       inkscape:collect="always"
       xlink:href="#linearGradient2"
       id="radialGradient174"
       gradientUnits="userSpaceOnUse"
       gradientTransform="matrix(1,0,0,1.0000588,0,-0.00577524)"
       cx="69.795998"
       cy="98.219843"
       fx="69.795998"
       fy="98.219843"
       r="4.379319" /></defs><g
     inkscape:groupmode="layer"
     id="layer2"
     inkscape:label="Background"
     style="display:inline"
     sodipodi:insensitive="true"><rect
       style="display:inline;fill:#000000;fill-opacity:1;stroke-width:0.264583"
       id="backgroundRect"
       width="201.29155"
       height="206.86189"
       x="3.5447569"
       y="35.447571" /><path
       d="m 106.18267,128.88257 -0.262,4.07366 -4.06591,0.35708 4.07366,0.262 0.3576,4.06642 0.26148,-4.07366 4.06642,-0.3576 -4.07365,-0.262 z"
       style="fill:url(#radialGradient149);stroke-width:0.264583"
       id="pointStar1" /><path
       d="m 159.9029,161.925 -0.26148,4.07365 -4.06642,0.3576 4.07365,0.26149 0.3576,4.06642 0.26149,-4.07366 4.06642,-0.3576 -4.07366,-0.26148 z"
       style="display:inline;fill:url(#radialGradient150);stroke-width:0.264583"
       id="pointStar2" /><path
       d="m 104.2386,165.33771 -0.26148,4.07365 -4.066423,0.35761 4.073653,0.26148 0.3576,4.06642 0.26148,-4.07366 4.06642,-0.3576 -4.07365,-0.26148 z"
       style="display:inline;fill:url(#radialGradient151);stroke-width:0.264583"
       id="pointStar3" /><path
       d="m 147.93361,76.662504 -0.262,4.073653 -4.06591,0.357084 4.07314,0.262 0.3576,4.066418 0.262,-4.073653 4.06642,-0.357601 -4.07365,-0.261999 z"
       style="display:inline;fill:url(#radialGradient152);stroke-width:0.264583"
       id="pointStar4" /><path
       d="m 39.365039,66.386129 -0.261999,4.073653 -4.065902,0.357601 4.073136,0.261483 0.357601,4.066418 0.262,-4.073653 4.065901,-0.357601 -4.073136,-0.261483 z"
       style="display:inline;fill:url(#radialGradient153);stroke-width:0.264583"
       id="pointStar5" /><path
       d="m 78.675818,132.29167 -0.261483,4.07365 -4.066418,0.3576 4.073653,0.26148 0.357601,4.06642 0.261482,-4.07365 4.066419,-0.3576 -4.073653,-0.26148 z"
       style="display:inline;fill:url(#radialGradient154);stroke-width:0.264583"
       id="pointStar6" /><path
       d="m 82.039954,193.25384 -0.262,4.07313 -4.065902,0.3576 4.073137,0.262 0.357601,4.06591 0.261999,-4.07314 4.065902,-0.3576 -4.073136,-0.262 z"
       style="display:inline;fill:url(#radialGradient155);stroke-width:0.264583"
       id="pointStar7" /><path
       d="m 158.84457,226.74792 -0.26148,4.07365 -4.06642,0.3576 4.07365,0.26148 0.3576,4.06642 0.26148,-4.07365 4.06642,-0.3576 -4.07365,-0.26148 z"
       style="display:inline;fill:url(#radialGradient156);stroke-width:0.264583"
       id="pointStar8" /><path
       d="m 158.84457,226.74792 0.3576,4.06642 4.07365,0.26148 -4.06642,0.3576 -0.26148,4.07365 -0.3576,-4.06642 -4.07365,-0.26148 4.06642,-0.3576 z"
       style="display:inline;fill:url(#radialGradient157);stroke-width:0.264583"
       id="pointStar9" /><path
       d="m 70.233439,214.33524 -0.261999,4.07365 -4.065902,0.3576 4.073136,0.26148 0.357601,4.06642 0.262,-4.07365 4.065901,-0.3576 -4.073136,-0.26148 z"
       style="display:inline;fill:url(#radialGradient158);stroke-width:0.264583"
       id="pointStar10" /><path
       d="m 132.72937,182.9232 -0.262,4.07365 -4.06591,0.35761 4.07314,0.26148 0.3576,4.06642 0.262,-4.07366 4.0659,-0.3576 -4.07313,-0.26148 z"
       style="display:inline;fill:url(#radialGradient159);stroke-width:0.264583"
       id="pointStar11" /><path
       d="m 146.1549,125.4771 -0.262,4.07313 -4.0659,0.3576 4.07366,0.262 0.35708,4.0659 0.262,-4.07313 4.06642,-0.3576 -4.07366,-0.262 z"
       style="display:inline;fill:url(#radialGradient160);stroke-width:0.264583"
       id="pointStar12" /><path
       d="m 146.1549,125.4771 0.3576,4.0659 4.07366,0.262 -4.06642,0.3576 -0.262,4.07313 -0.35708,-4.0659 -4.07366,-0.262 4.0659,-0.3576 z"
       style="display:inline;fill:url(#radialGradient161);stroke-width:0.264583"
       id="pointStar13" /><path
       d="m 96.502637,67.904899 -0.261483,4.073136 -4.066418,0.357601 4.073653,0.262 0.357601,4.066418 0.261482,-4.073653 4.066418,-0.357601 -4.073652,-0.261999 z"
       style="display:inline;fill:url(#radialGradient162);stroke-width:0.264583"
       id="pointStar14" /><path
       d="m 30.647742,116.95824 -0.261483,4.07365 -4.066419,0.3576 4.073654,0.26148 0.357601,4.06642 0.261482,-4.07365 4.066419,-0.3576 -4.073653,-0.26149 z"
       style="display:inline;fill:url(#radialGradient163);stroke-width:0.264583"
       id="pointStar15" /><path
       d="m 50.574174,164.14295 -0.262,4.07314 -4.065901,0.3576 4.073136,0.262 0.357601,4.06642 0.262,-4.07366 4.065901,-0.3576 -4.073136,-0.262 z"
       style="display:inline;fill:url(#radialGradient164);stroke-width:0.264583"
       id="pointStar16" /><path
       d="m 183.19967,60.729626 -0.26148,4.073654 -4.06642,0.357601 4.07365,0.261482 0.3576,4.066419 0.26149,-4.073653 4.06641,-0.357601 -4.07365,-0.261483 z"
       style="display:inline;fill:url(#radialGradient165);stroke-width:0.264583"
       id="pointStar17" /><path
       d="m 114.87051,98.23173 -0.262,4.07314 -4.0659,0.3576 4.07365,0.262 0.35708,4.0659 0.262,-4.07314 4.06642,-0.3576 -4.07365,-0.262 z"
       style="display:inline;fill:url(#radialGradient166);stroke-width:0.264583"
       id="pointStar18" /><path
       d="m 179.00096,117.62693 -0.262,4.07314 -4.0659,0.3576 4.07314,0.262 0.3576,4.0659 0.262,-4.07314 4.0659,-0.3576 -4.07314,-0.262 z"
       style="display:inline;fill:url(#radialGradient167);stroke-width:0.264583"
       id="pointStar19" /><path
       d="m 29.127938,203.54417 -0.261483,4.07365 -4.066418,0.3576 4.073653,0.26148 0.357601,4.06642 0.261482,-4.07365 4.066419,-0.3576 -4.073653,-0.26149 z"
       style="display:inline;fill:url(#radialGradient168);stroke-width:0.264583"
       id="pointStar20" /><path
       d="m 120.04694,222.99311 -0.262,4.07365 -4.06642,0.3576 4.07365,0.26148 0.3576,4.06642 0.262,-4.07365 4.0659,-0.3576 -4.07365,-0.26148 z"
       style="display:inline;fill:url(#radialGradient169);stroke-width:0.264583"
       id="pointStar21" /><path
       d="m 118.86541,205.86099 0.35708,4.06642 4.07365,0.26148 -4.0659,0.3576 -0.262,4.07365 -0.3576,-4.06642 -4.07365,-0.26148 4.06642,-0.3576 z"
       style="display:inline;fill:url(#radialGradient170);stroke-width:0.264583"
       id="pointStar22" /><path
       d="m 134.29051,45.090788 -0.26148,4.073136 -4.06642,0.357601 4.07365,0.262 0.3576,4.065901 0.262,-4.073136 4.06591,-0.357601 -4.07366,-0.262 z"
       style="display:inline;fill:url(#radialGradient171);stroke-width:0.264583"
       id="pointStar23" /><path
       d="m 69.74458,93.840267 -0.261999,4.073653 -4.065902,0.357084 4.073136,0.262 0.357601,4.066416 0.262,-4.073651 4.065901,-0.357601 -4.073136,-0.261999 z"
       style="display:inline;fill:url(#radialGradient174);stroke-width:0.264583"
       id="pointStar24" /><path
       d="m 15.878101,41.073979 -0.261483,4.073653 -4.066419,0.357601 4.073654,0.261482 0.3576,4.066419 0.261483,-4.073653 4.066419,-0.357601 -4.073654,-0.261483 z"
       style="display:inline;fill:url(#radialGradient173);stroke-width:0.264583"
       id="pointStar25" /><path
       d="m 104.35745,209.46525 a 0.75077206,0.75077206 0 0 0 -0.53123,0.22014 0.75077206,0.75077206 0 0 0 -0.21962,0.53072 0.75077206,0.75077206 0 0 0 0.21962,0.53072 0.75077206,0.75077206 0 0 0 0.53123,0.22014 0.75077206,0.75077206 0 0 0 0.75086,-0.75086 0.75077206,0.75077206 0 0 0 -0.0574,-0.28732 0.75077206,0.75077206 0 0 0 -0.16278,-0.2434 0.75077206,0.75077206 0 0 0 -0.24339,-0.16278 0.75077206,0.75077206 0 0 0 -0.28733,-0.0574 z"
       style="fill:#0004d6;stroke-width:0.264583"
       id="circleStar1" /><path
       d="m 104.35745,209.46525 a 0.75077206,0.75077206 0 0 1 0.28733,0.0574 0.75077206,0.75077206 0 0 1 0.24339,0.16278 0.75077206,0.75077206 0 0 1 0.16278,0.2434 0.75077206,0.75077206 0 0 1 0.0574,0.28732 0.75077206,0.75077206 0 0 1 -0.75086,0.75086 0.75077206,0.75077206 0 0 1 -0.53123,-0.22014 0.75077206,0.75077206 0 0 1 -0.21962,-0.53072 0.75077206,0.75077206 0 0 1 0.21962,-0.53072 0.75077206,0.75077206 0 0 1 0.53123,-0.22014 z"
       style="fill:#0004d6;stroke-width:0.264583"
       id="circleStar2" /><path
       d="m 146.53628,213.51875 a 0.75077206,0.75077206 0 0 0 -0.53072,0.22014 0.75077206,0.75077206 0 0 0 -0.22014,0.53072 0.75077206,0.75077206 0 0 0 0.22014,0.53072 0.75077206,0.75077206 0 0 0 0.53072,0.22014 0.75077206,0.75077206 0 0 0 0.53071,-0.22014 0.75077206,0.75077206 0 0 0 0.22014,-0.53072 0.75077206,0.75077206 0 0 0 -0.10077,-0.37569 0.75077206,0.75077206 0 0 0 -0.27491,-0.2744 0.75077206,0.75077206 0 0 0 -0.37517,-0.10077 z"
       style="display:inline;fill:#0004d6;stroke-width:0.264583"
       id="circleStar3" /><path
       d="m 190.19253,227.27708 a 0.75077206,0.75077206 0 0 0 -0.75086,0.75086 0.75077206,0.75077206 0 0 0 0.75086,0.75086 0.75077206,0.75077206 0 0 0 0.53071,-0.22014 0.75077206,0.75077206 0 0 0 0.22014,-0.53072 0.75077206,0.75077206 0 0 0 -0.10077,-0.37569 0.75077206,0.75077206 0 0 0 -0.27491,-0.2744 0.75077206,0.75077206 0 0 0 -0.37517,-0.10077 z"
       style="display:inline;fill:#0004d6;stroke-width:0.264583"
       id="circleStar4" /><path
       d="m 190.19253,227.27708 a 0.75077206,0.75077206 0 0 1 0.37517,0.10077 0.75077206,0.75077206 0 0 1 0.27491,0.2744 0.75077206,0.75077206 0 0 1 0.10077,0.37569 0.75077206,0.75077206 0 0 1 -0.22014,0.53072 0.75077206,0.75077206 0 0 1 -0.53071,0.22014 0.75077206,0.75077206 0 0 1 -0.75086,-0.75086 0.75077206,0.75077206 0 0 1 0.75086,-0.75086 z"
       style="display:inline;fill:#0004d6;stroke-width:0.264583"
       id="circleStar5" /><path
       d="m 174.91439,181.34242 a 0.75077206,0.75077206 0 0 0 -0.53124,0.22014 0.75077206,0.75077206 0 0 0 -0.21962,0.53072 0.75077206,0.75077206 0 0 0 0.21962,0.53071 0.75077206,0.75077206 0 0 0 0.53124,0.22015 0.75077206,0.75077206 0 0 0 0.53071,-0.22015 0.75077206,0.75077206 0 0 0 0.21963,-0.53071 0.75077206,0.75077206 0 0 0 -0.10025,-0.37517 0.75077206,0.75077206 0 0 0 -0.27492,-0.27492 0.75077206,0.75077206 0 0 0 -0.37517,-0.10077 z"
       style="display:inline;fill:#0004d6;stroke-width:0.264583"
       id="circleStar6" /><path
       d="m 123.60951,140.56403 a 0.75077206,0.75077206 0 0 0 -0.75086,0.75086 0.75077206,0.75077206 0 0 0 0.75086,0.75086 0.75077206,0.75077206 0 0 0 0.53123,-0.22014 0.75077206,0.75077206 0 0 0 0.21963,-0.53072 0.75077206,0.75077206 0 0 0 -0.10077,-0.37569 0.75077206,0.75077206 0 0 0 -0.2744,-0.2744 0.75077206,0.75077206 0 0 0 -0.37569,-0.10077 z"
       style="display:inline;fill:#0004d6;stroke-width:0.264583"
       id="circleStar7" /><path
       d="m 123.60951,140.56403 a 0.75077206,0.75077206 0 0 1 0.37569,0.10077 0.75077206,0.75077206 0 0 1 0.2744,0.2744 0.75077206,0.75077206 0 0 1 0.10077,0.37569 0.75077206,0.75077206 0 0 1 -0.21963,0.53072 0.75077206,0.75077206 0 0 1 -0.53123,0.22014 0.75077206,0.75077206 0 0 1 -0.75086,-0.75086 0.75077206,0.75077206 0 0 1 0.75086,-0.75086 z"
       style="display:inline;fill:#0004d6;stroke-width:0.264583"
       id="circleStar8" /><path
       d="m 71.773914,151.08639 a 0.75077206,0.75077206 0 0 0 -0.530717,0.22014 0.75077206,0.75077206 0 0 0 -0.219625,0.53071 0.75077206,0.75077206 0 0 0 0.219625,0.53072 0.75077206,0.75077206 0 0 0 0.530717,0.22014 0.75077206,0.75077206 0 0 0 0.750858,-0.75086 0.75077206,0.75077206 0 0 0 -0.05684,-0.28732 0.75077206,0.75077206 0 0 0 -0.162781,-0.24339 0.75077206,0.75077206 0 0 0 -0.243912,-0.16278 0.75077206,0.75077206 0 0 0 -0.287321,-0.0574 z"
       style="display:inline;fill:#0004d6;stroke-width:0.264583"
       id="circleStar9" /><path
       d="m 39.293726,141.37122 a 0.75077206,0.75077206 0 0 0 -0.531234,0.22014 0.75077206,0.75077206 0 0 0 -0.219625,0.53071 0.75077206,0.75077206 0 0 0 0.219625,0.53072 0.75077206,0.75077206 0 0 0 0.531234,0.22014 0.75077206,0.75077206 0 0 0 0.530717,-0.22014 0.75077206,0.75077206 0 0 0 0.219624,-0.53072 0.75077206,0.75077206 0 0 0 -0.100252,-0.37568 0.75077206,0.75077206 0 0 0 -0.274919,-0.27441 0.75077206,0.75077206 0 0 0 -0.37517,-0.10076 z"
       style="display:inline;fill:#0004d6;stroke-width:0.264583"
       id="circleStar10" /><path
       d="m 67.955025,194.99792 a 0.75077206,0.75077206 0 0 0 -0.530717,0.22014 0.75077206,0.75077206 0 0 0 -0.220141,0.53072 0.75077206,0.75077206 0 0 0 0.220141,0.53071 0.75077206,0.75077206 0 0 0 0.530717,0.22014 0.75077206,0.75077206 0 0 0 0.530717,-0.22014 0.75077206,0.75077206 0 0 0 0.220142,-0.53071 0.75077206,0.75077206 0 0 0 -0.100769,-0.37569 0.75077206,0.75077206 0 0 0 -0.274919,-0.2744 0.75077206,0.75077206 0 0 0 -0.375171,-0.10077 z"
       style="display:inline;fill:#0004d6;stroke-width:0.264583"
       id="circleStar11" /><path
       d="m 51.470243,215.23492 a 0.75077206,0.75077206 0 0 0 -0.530717,0.22015 0.75077206,0.75077206 0 0 0 -0.220141,0.53071 0.75077206,0.75077206 0 0 0 0.220141,0.53124 0.75077206,0.75077206 0 0 0 0.530717,0.21962 0.75077206,0.75077206 0 0 0 0.530717,-0.21962 0.75077206,0.75077206 0 0 0 0.220142,-0.53124 0.75077206,0.75077206 0 0 0 -0.100769,-0.37517 0.75077206,0.75077206 0 0 0 -0.274919,-0.27492 0.75077206,0.75077206 0 0 0 -0.375171,-0.10077 z"
       style="display:inline;fill:#0004d6;stroke-width:0.264583"
       id="circleStar12" /><path
       d="m 96.186377,158.79237 a 0.75077206,0.75077206 0 0 0 -0.531234,0.22015 0.75077206,0.75077206 0 0 0 -0.219625,0.53071 0.75077206,0.75077206 0 0 0 0.219625,0.53072 0.75077206,0.75077206 0 0 0 0.531234,0.22014 0.75077206,0.75077206 0 0 0 0.750342,-0.75086 0.75077206,0.75077206 0 0 0 -0.05684,-0.28732 0.75077206,0.75077206 0 0 0 -0.162781,-0.24339 0.75077206,0.75077206 0 0 0 -0.243913,-0.16278 0.75077206,0.75077206 0 0 0 -0.286804,-0.0574 z"
       style="display:inline;fill:#0004d6;stroke-width:0.264583"
       id="circleStar13" /><path
       d="m 136.3369,165.23746 a 0.75077206,0.75077206 0 0 0 -0.53072,0.21962 0.75077206,0.75077206 0 0 0 -0.22014,0.53124 0.75077206,0.75077206 0 0 0 0.22014,0.53071 0.75077206,0.75077206 0 0 0 0.53072,0.22015 0.75077206,0.75077206 0 0 0 0.75086,-0.75086 0.75077206,0.75077206 0 0 0 -0.0574,-0.28732 0.75077206,0.75077206 0 0 0 -0.16279,-0.24392 0.75077206,0.75077206 0 0 0 -0.24339,-0.16226 0.75077206,0.75077206 0 0 0 -0.28732,-0.0574 z"
       style="display:inline;fill:#0004d6;stroke-width:0.264583"
       id="circleStar14" /><path
       d="m 175.86007,147.78323 a 0.75077206,0.75077206 0 0 0 -0.53072,0.22014 0.75077206,0.75077206 0 0 0 -0.22014,0.53072 0.75077206,0.75077206 0 0 0 0.22014,0.53123 0.75077206,0.75077206 0 0 0 0.53072,0.21962 0.75077206,0.75077206 0 0 0 0.53123,-0.21962 0.75077206,0.75077206 0 0 0 0.21963,-0.53123 0.75077206,0.75077206 0 0 0 -0.10077,-0.37517 0.75077206,0.75077206 0 0 0 -0.27441,-0.27492 0.75077206,0.75077206 0 0 0 -0.37568,-0.10077 z"
       style="display:inline;fill:#0004d6;stroke-width:0.264583"
       id="circleStar15" /><path
       d="m 164.26439,196.19681 a 0.75077206,0.75077206 0 0 0 -0.75086,0.75086 0.75077206,0.75077206 0 0 0 0.75086,0.75086 0.75077206,0.75077206 0 0 0 0.53072,-0.22014 0.75077206,0.75077206 0 0 0 0.21962,-0.53072 0.75077206,0.75077206 0 0 0 -0.10025,-0.37569 0.75077206,0.75077206 0 0 0 -0.27492,-0.2744 0.75077206,0.75077206 0 0 0 -0.37517,-0.10077 z"
       style="display:inline;fill:#0004d6;stroke-width:0.264583"
       id="circleStar16" /><path
       d="m 28.924849,179.49034 a 0.75077206,0.75077206 0 0 0 -0.750858,0.75085 0.75077206,0.75077206 0 0 0 0.750858,0.75086 0.75077206,0.75077206 0 0 0 0.530717,-0.22014 0.75077206,0.75077206 0 0 0 0.219625,-0.53072 0.75077206,0.75077206 0 0 0 -0.100252,-0.37517 0.75077206,0.75077206 0 0 0 -0.274919,-0.27491 0.75077206,0.75077206 0 0 0 -0.375171,-0.10077 z"
       style="display:inline;fill:#0004d6;stroke-width:0.264583"
       id="circleStar17" /><path
       d="m 21.278288,228.58398 a 0.75077206,0.75077206 0 0 0 -0.531234,0.21963 0.75077206,0.75077206 0 0 0 -0.219625,0.53123 0.75077206,0.75077206 0 0 0 0.219625,0.53072 0.75077206,0.75077206 0 0 0 0.531234,0.21962 0.75077206,0.75077206 0 0 0 0.530717,-0.21962 0.75077206,0.75077206 0 0 0 0.220141,-0.53072 0.75077206,0.75077206 0 0 0 -0.100769,-0.37569 0.75077206,0.75077206 0 0 0 -0.274918,-0.27492 0.75077206,0.75077206 0 0 0 -0.375171,-0.10025 z"
       style="display:inline;fill:#0004d6;stroke-width:0.264583"
       id="circleStar18" /><path
       d="m 76.194832,175.93138 a 0.75077206,0.75077206 0 0 0 -0.750341,0.75086 0.75077206,0.75077206 0 0 0 0.750341,0.75086 0.75077206,0.75077206 0 0 0 0.531234,-0.22014 0.75077206,0.75077206 0 0 0 0.219625,-0.53072 0.75077206,0.75077206 0 0 0 -0.100252,-0.37569 0.75077206,0.75077206 0 0 0 -0.274919,-0.2744 0.75077206,0.75077206 0 0 0 -0.375688,-0.10077 z"
       style="display:inline;fill:#0004d6;stroke-width:0.264583"
       id="circleStar19" /><path
       d="m 133.97839,114.37855 a 0.75077206,0.75077206 0 0 0 -0.53072,0.22014 0.75077206,0.75077206 0 0 0 -0.22014,0.53072 0.75077206,0.75077206 0 0 0 0.22014,0.53123 0.75077206,0.75077206 0 0 0 0.53072,0.21963 0.75077206,0.75077206 0 0 0 0.75085,-0.75086 0.75077206,0.75077206 0 0 0 -0.0568,-0.28732 0.75077206,0.75077206 0 0 0 -0.16278,-0.2434 0.75077206,0.75077206 0 0 0 -0.24391,-0.16278 0.75077206,0.75077206 0 0 0 -0.28732,-0.0574 z"
       style="display:inline;fill:#0004d6;stroke-width:0.264583"
       id="circleStar20" /><path
       d="m 83.456921,112.31511 a 0.75077206,0.75077206 0 0 0 -0.530717,0.21962 0.75077206,0.75077206 0 0 0 -0.220141,0.53124 0.75077206,0.75077206 0 0 0 0.220141,0.53071 0.75077206,0.75077206 0 0 0 0.530717,0.21963 0.75077206,0.75077206 0 0 0 0.750859,-0.75034 0.75077206,0.75077206 0 0 0 -0.05736,-0.28732 0.75077206,0.75077206 0 0 0 -0.162781,-0.24392 0.75077206,0.75077206 0 0 0 -0.243396,-0.16278 0.75077206,0.75077206 0 0 0 -0.287321,-0.0568 z"
       style="display:inline;fill:#0004d6;stroke-width:0.264583"
       id="circleStar21" /><path
       d="m 156.25144,96.227718 a 0.75077206,0.75077206 0 0 0 -0.53071,0.220142 0.75077206,0.75077206 0 0 0 -0.22014,0.530717 0.75077206,0.75077206 0 0 0 0.22014,0.530717 0.75077206,0.75077206 0 0 0 0.53071,0.220141 0.75077206,0.75077206 0 0 0 0.53072,-0.220141 0.75077206,0.75077206 0 0 0 0.22014,-0.530717 0.75077206,0.75077206 0 0 0 -0.10077,-0.375688 0.75077206,0.75077206 0 0 0 -0.27491,-0.274402 0.75077206,0.75077206 0 0 0 -0.37518,-0.100769 z"
       style="display:inline;fill:#0004d6;stroke-width:0.264583"
       id="circleStar22" /><path
       d="m 158.17794,120.65 a 0.75077206,0.75077206 0 0 0 -0.53072,0.21962 0.75077206,0.75077206 0 0 0 -0.22014,0.53124 0.75077206,0.75077206 0 0 0 0.22014,0.53072 0.75077206,0.75077206 0 0 0 0.53072,0.22014 0.75077206,0.75077206 0 0 0 0.75086,-0.75086 0.75077206,0.75077206 0 0 0 -0.0574,-0.28732 0.75077206,0.75077206 0 0 0 -0.16278,-0.24392 0.75077206,0.75077206 0 0 0 -0.2434,-0.16226 0.75077206,0.75077206 0 0 0 -0.28732,-0.0574 z"
       style="display:inline;fill:#0004d6;stroke-width:0.264583"
       id="circleStar23" /><path
       d="m 179.87378,139.17083 a 0.75077206,0.75077206 0 0 0 -0.75086,0.75086 0.75077206,0.75077206 0 0 0 0.75086,0.75086 0.75077206,0.75077206 0 0 0 0.53071,-0.22014 0.75077206,0.75077206 0 0 0 0.22014,-0.53072 0.75077206,0.75077206 0 0 0 -0.10077,-0.37569 0.75077206,0.75077206 0 0 0 -0.27491,-0.2744 0.75077206,0.75077206 0 0 0 -0.37517,-0.10077 z"
       style="display:inline;fill:#0004d6;stroke-width:0.264583"
       id="circleStar24" /><path
       d="m 179.87378,139.17083 a 0.75077206,0.75077206 0 0 1 0.37517,0.10077 0.75077206,0.75077206 0 0 1 0.27491,0.2744 0.75077206,0.75077206 0 0 1 0.10077,0.37569 0.75077206,0.75077206 0 0 1 -0.22014,0.53072 0.75077206,0.75077206 0 0 1 -0.53071,0.22014 0.75077206,0.75077206 0 0 1 -0.75086,-0.75086 0.75077206,0.75077206 0 0 1 0.75086,-0.75086 z"
       style="display:inline;fill:#0004d6;stroke-width:0.264583"
       id="circleStar25" /><path
       d="m 186.75294,150.54792 a 0.75077206,0.75077206 0 0 0 -0.75086,0.75086 0.75077206,0.75077206 0 0 0 0.75086,0.75085 0.75077206,0.75077206 0 0 0 0.53072,-0.22014 0.75077206,0.75077206 0 0 0 0.22014,-0.53071 0.75077206,0.75077206 0 0 0 -0.10077,-0.37569 0.75077206,0.75077206 0 0 0 -0.27492,-0.2744 0.75077206,0.75077206 0 0 0 -0.37517,-0.10077 z"
       style="display:inline;fill:#0004d6;stroke-width:0.264583"
       id="circleStar26" /><path
       d="m 158.71073,154.27482 a 0.75077206,0.75077206 0 0 0 -0.53124,0.22014 0.75077206,0.75077206 0 0 0 -0.21962,0.53072 0.75077206,0.75077206 0 0 0 0.21962,0.53072 0.75077206,0.75077206 0 0 0 0.53124,0.22014 0.75077206,0.75077206 0 0 0 0.53071,-0.22014 0.75077206,0.75077206 0 0 0 0.22014,-0.53072 0.75077206,0.75077206 0 0 0 -0.10076,-0.37517 0.75077206,0.75077206 0 0 0 -0.27492,-0.27492 0.75077206,0.75077206 0 0 0 -0.37517,-0.10077 z"
       style="display:inline;fill:#0004d6;stroke-width:0.264583"
       id="circleStar27" /><path
       d="m 145.61127,144.67334 a 0.75077206,0.75077206 0 0 0 -0.53072,0.22014 0.75077206,0.75077206 0 0 0 -0.22014,0.53072 0.75077206,0.75077206 0 0 0 0.22014,0.53072 0.75077206,0.75077206 0 0 0 0.53072,0.22014 0.75077206,0.75077206 0 0 0 0.53071,-0.22014 0.75077206,0.75077206 0 0 0 0.22015,-0.53072 0.75077206,0.75077206 0 0 0 -0.10077,-0.37569 0.75077206,0.75077206 0 0 0 -0.27492,-0.2744 0.75077206,0.75077206 0 0 0 -0.37517,-0.10077 z"
       style="display:inline;fill:#0004d6;stroke-width:0.264583"
       id="circleStar28" /><path
       d="m 51.16897,107.5769 a 0.75077206,0.75077206 0 0 0 -0.530717,0.22014 0.75077206,0.75077206 0 0 0 -0.220142,0.53071 0.75077206,0.75077206 0 0 0 0.220142,0.53072 0.75077206,0.75077206 0 0 0 0.530717,0.22014 0.75077206,0.75077206 0 0 0 0.530717,-0.22014 0.75077206,0.75077206 0 0 0 0.220141,-0.53072 0.75077206,0.75077206 0 0 0 -0.100769,-0.37517 0.75077206,0.75077206 0 0 0 -0.274918,-0.27491 0.75077206,0.75077206 0 0 0 -0.375171,-0.10077 z"
       style="display:inline;fill:#0004d6;stroke-width:0.264583"
       id="circleStar29" /><path
       d="m 25.971025,88.626632 a 0.75077206,0.75077206 0 0 0 -0.531234,0.219625 0.75077206,0.75077206 0 0 0 -0.219625,0.530716 0.75077206,0.75077206 0 0 0 0.219625,0.531234 0.75077206,0.75077206 0 0 0 0.531234,0.219625 0.75077206,0.75077206 0 0 0 0.530717,-0.219625 0.75077206,0.75077206 0 0 0 0.219624,-0.531234 0.75077206,0.75077206 0 0 0 -0.100252,-0.37517 0.75077206,0.75077206 0 0 0 -0.274919,-0.274919 0.75077206,0.75077206 0 0 0 -0.37517,-0.100252 z"
       style="display:inline;fill:#0004d6;stroke-width:0.264583"
       id="circleStar30" /><path
       d="m 15.515332,150.37428 a 0.75077206,0.75077206 0 0 0 -0.530717,0.21963 0.75077206,0.75077206 0 0 0 -0.219625,0.53123 0.75077206,0.75077206 0 0 0 0.219625,0.53072 0.75077206,0.75077206 0 0 0 0.530717,0.21962 0.75077206,0.75077206 0 0 0 0.531234,-0.21962 0.75077206,0.75077206 0 0 0 0.219625,-0.53072 0.75077206,0.75077206 0 0 0 -0.100253,-0.37569 0.75077206,0.75077206 0 0 0 -0.274918,-0.27491 0.75077206,0.75077206 0 0 0 -0.375688,-0.10026 z"
       style="display:inline;fill:#0004d6;stroke-width:0.264583"
       id="circleStar31" /><path
       d="m 16.545243,191.18471 a 0.75077206,0.75077206 0 0 0 -0.530717,0.22014 0.75077206,0.75077206 0 0 0 -0.220141,0.53072 0.75077206,0.75077206 0 0 0 0.220141,0.53124 0.75077206,0.75077206 0 0 0 0.530717,0.21962 0.75077206,0.75077206 0 0 0 0.750859,-0.75086 0.75077206,0.75077206 0 0 0 -0.05736,-0.28732 0.75077206,0.75077206 0 0 0 -0.162781,-0.2434 0.75077206,0.75077206 0 0 0 -0.243396,-0.16278 0.75077206,0.75077206 0 0 0 -0.287321,-0.0574 z"
       style="display:inline;fill:#0004d6;stroke-width:0.264583"
       id="circleStar32" /><path
       d="m 52.275362,197.76674 a 0.75077206,0.75077206 0 0 0 -0.530717,0.22014 0.75077206,0.75077206 0 0 0 -0.219625,0.53072 0.75077206,0.75077206 0 0 0 0.219625,0.53072 0.75077206,0.75077206 0 0 0 0.530717,0.22014 0.75077206,0.75077206 0 0 0 0.531234,-0.22014 0.75077206,0.75077206 0 0 0 0.219625,-0.53072 0.75077206,0.75077206 0 0 0 -0.100253,-0.37517 0.75077206,0.75077206 0 0 0 -0.274918,-0.27492 0.75077206,0.75077206 0 0 0 -0.375688,-0.10077 z"
       style="display:inline;fill:#0004d6;stroke-width:0.264583"
       id="circleStar33" /><path
       d="m 91.862093,96.440625 a 0.75077206,0.75077206 0 0 0 -0.531234,0.219625 0.75077206,0.75077206 0 0 0 -0.219624,0.530717 0.75077206,0.75077206 0 0 0 0.219624,0.531234 0.75077206,0.75077206 0 0 0 0.531234,0.219624 0.75077206,0.75077206 0 0 0 0.750342,-0.750858 0.75077206,0.75077206 0 0 0 -0.05684,-0.287321 0.75077206,0.75077206 0 0 0 -0.162781,-0.243396 0.75077206,0.75077206 0 0 0 -0.243396,-0.162781 0.75077206,0.75077206 0 0 0 -0.287321,-0.05684 z"
       style="display:inline;fill:#0004d6;stroke-width:0.264583"
       id="circleStar34" /><path
       d="m 125.505,73.393453 a 0.75077206,0.75077206 0 0 0 -0.75034,0.750859 0.75077206,0.75077206 0 0 0 0.75034,0.750858 0.75077206,0.75077206 0 0 0 0.53123,-0.220142 0.75077206,0.75077206 0 0 0 0.21963,-0.530716 0.75077206,0.75077206 0 0 0 -0.10025,-0.375688 0.75077206,0.75077206 0 0 0 -0.27492,-0.274402 0.75077206,0.75077206 0 0 0 -0.37569,-0.100769 z"
       style="display:inline;fill:#0004d6;stroke-width:0.264583"
       id="circleStar35" /><path
       d="m 125.505,73.393453 a 0.75077206,0.75077206 0 0 1 0.37569,0.100769 0.75077206,0.75077206 0 0 1 0.27492,0.274402 0.75077206,0.75077206 0 0 1 0.10025,0.375688 0.75077206,0.75077206 0 0 1 -0.21963,0.530716 0.75077206,0.75077206 0 0 1 -0.53123,0.220142 0.75077206,0.75077206 0 0 1 -0.75034,-0.750858 0.75077206,0.75077206 0 0 1 0.75034,-0.750859 z"
       style="display:inline;fill:#0004d6;stroke-width:0.264583"
       id="circleStar36" /><path
       d="m 161.19326,69.952836 a 0.75077206,0.75077206 0 0 0 -0.75034,0.750859 0.75077206,0.75077206 0 0 0 0.75034,0.750858 0.75077206,0.75077206 0 0 0 0.53124,-0.220141 0.75077206,0.75077206 0 0 0 0.21962,-0.530717 0.75077206,0.75077206 0 0 0 -0.10025,-0.375171 0.75077206,0.75077206 0 0 0 -0.27492,-0.274919 0.75077206,0.75077206 0 0 0 -0.37569,-0.100769 z"
       style="display:inline;fill:#0004d6;stroke-width:0.264583"
       id="circleStar37" /><path
       d="m 182.78419,88.986816 a 0.75077206,0.75077206 0 0 0 -0.75086,0.750859 0.75077206,0.75077206 0 0 0 0.75086,0.750859 0.75077206,0.75077206 0 0 0 0.53072,-0.220142 0.75077206,0.75077206 0 0 0 0.22014,-0.530717 0.75077206,0.75077206 0 0 0 -0.10077,-0.375688 0.75077206,0.75077206 0 0 0 -0.27492,-0.274402 0.75077206,0.75077206 0 0 0 -0.37517,-0.100769 z"
       style="display:inline;fill:#0004d6;stroke-width:0.264583"
       id="circleStar38" /><path
       d="m 182.78419,88.986816 a 0.75077206,0.75077206 0 0 1 0.37517,0.100769 0.75077206,0.75077206 0 0 1 0.27492,0.274402 0.75077206,0.75077206 0 0 1 0.10077,0.375688 0.75077206,0.75077206 0 0 1 -0.22014,0.530717 0.75077206,0.75077206 0 0 1 -0.53072,0.220142 0.75077206,0.75077206 0 0 1 -0.75086,-0.750859 0.75077206,0.75077206 0 0 1 0.75086,-0.750859 z"
       style="display:inline;fill:#0004d6;stroke-width:0.264583"
       id="circleStar39" /><path
       d="m 84.518872,52.150305 a 0.75077206,0.75077206 0 0 0 -0.750858,0.750859 0.75077206,0.75077206 0 0 0 0.750858,0.750342 0.75077206,0.75077206 0 0 0 0.530717,-0.219625 0.75077206,0.75077206 0 0 0 0.220142,-0.530717 0.75077206,0.75077206 0 0 0 -0.100769,-0.375688 0.75077206,0.75077206 0 0 0 -0.274402,-0.274919 0.75077206,0.75077206 0 0 0 -0.375688,-0.100252 z"
       style="display:inline;fill:#0004d6;stroke-width:0.264583"
       id="circleStar40" /><path
       d="m 61.415373,80.318612 a 0.75077206,0.75077206 0 0 0 -0.530717,0.220141 0.75077206,0.75077206 0 0 0 -0.219625,0.530717 0.75077206,0.75077206 0 0 0 0.219625,0.530717 0.75077206,0.75077206 0 0 0 0.530717,0.220142 0.75077206,0.75077206 0 0 0 0.531233,-0.220142 0.75077206,0.75077206 0 0 0 0.219625,-0.530717 0.75077206,0.75077206 0 0 0 -0.100252,-0.375171 0.75077206,0.75077206 0 0 0 -0.274919,-0.274918 0.75077206,0.75077206 0 0 0 -0.375687,-0.100769 z"
       style="display:inline;fill:#0004d6;stroke-width:0.264583"
       id="circleStar41" /><path
       d="m 111.15962,188.4469 a 0.75077206,0.75077206 0 0 0 -0.75086,0.75085 0.75077206,0.75077206 0 0 0 0.75086,0.75086 0.75077206,0.75077206 0 0 0 0.53072,-0.22014 0.75077206,0.75077206 0 0 0 0.22014,-0.53072 0.75077206,0.75077206 0 0 0 -0.10077,-0.37568 0.75077206,0.75077206 0 0 0 -0.27492,-0.27441 0.75077206,0.75077206 0 0 0 -0.37517,-0.10076 z"
       style="display:inline;fill:#0004d6;stroke-width:0.264583"
       id="circleStar42" /><path
       d="m 156.98783,56.269434 a 0.75077206,0.75077206 0 0 0 -0.75085,0.750858 0.75077206,0.75077206 0 0 0 0.75085,0.750859 0.75077206,0.75077206 0 0 0 0.53072,-0.220142 0.75077206,0.75077206 0 0 0 0.22014,-0.530717 0.75077206,0.75077206 0 0 0 -0.10077,-0.375688 0.75077206,0.75077206 0 0 0 -0.2744,-0.274401 0.75077206,0.75077206 0 0 0 -0.37569,-0.100769 z"
       style="display:inline;fill:#0004d6;stroke-width:0.264583"
       id="circleStar43" /><path
       d="m 56.982052,52.097595 a 0.75077206,0.75077206 0 0 0 -0.530717,0.220142 0.75077206,0.75077206 0 0 0 -0.220142,0.530717 0.75077206,0.75077206 0 0 0 0.220142,0.531233 0.75077206,0.75077206 0 0 0 0.530717,0.219625 0.75077206,0.75077206 0 0 0 0.530717,-0.219625 0.75077206,0.75077206 0 0 0 0.220141,-0.531233 0.75077206,0.75077206 0 0 0 -0.100769,-0.375171 0.75077206,0.75077206 0 0 0 -0.274402,-0.274919 0.75077206,0.75077206 0 0 0 -0.375687,-0.100769 z"
       style="display:inline;fill:#0004d6;stroke-width:0.264583"
       id="circleStar44" /><path
       d="m 29.745471,55.515474 a 0.75077206,0.75077206 0 0 0 -0.530717,0.220142 0.75077206,0.75077206 0 0 0 -0.219625,0.530717 0.75077206,0.75077206 0 0 0 0.219625,0.530717 0.75077206,0.75077206 0 0 0 0.530717,0.220142 0.75077206,0.75077206 0 0 0 0.531234,-0.220142 0.75077206,0.75077206 0 0 0 0.219625,-0.530717 0.75077206,0.75077206 0 0 0 -0.100253,-0.375688 0.75077206,0.75077206 0 0 0 -0.274918,-0.274402 0.75077206,0.75077206 0 0 0 -0.375688,-0.100769 z"
       style="display:inline;fill:#0004d6;stroke-width:0.264583"
       id="circleStar45" /><path
       d="m 55.606425,128.20664 a 0.75077206,0.75077206 0 0 0 -0.530717,0.21963 0.75077206,0.75077206 0 0 0 -0.220142,0.53123 0.75077206,0.75077206 0 0 0 0.220142,0.53072 0.75077206,0.75077206 0 0 0 0.530717,0.21963 0.75077206,0.75077206 0 0 0 0.530717,-0.21963 0.75077206,0.75077206 0 0 0 0.220142,-0.53072 0.75077206,0.75077206 0 0 0 -0.10077,-0.37568 0.75077206,0.75077206 0 0 0 -0.274918,-0.27492 0.75077206,0.75077206 0 0 0 -0.375171,-0.10026 z"
       style="display:inline;fill:#0004d6;stroke-width:0.264583"
       id="circleStar46" /><path
       d="m 17.949292,110.34934 a 0.75077206,0.75077206 0 0 0 -0.531234,0.21962 0.75077206,0.75077206 0 0 0 -0.219625,0.53072 0.75077206,0.75077206 0 0 0 0.219625,0.53123 0.75077206,0.75077206 0 0 0 0.531234,0.21963 0.75077206,0.75077206 0 0 0 0.530717,-0.21963 0.75077206,0.75077206 0 0 0 0.220142,-0.53123 0.75077206,0.75077206 0 0 0 -0.100769,-0.37517 0.75077206,0.75077206 0 0 0 -0.274919,-0.27492 0.75077206,0.75077206 0 0 0 -0.375171,-0.10025 z"
       style="display:inline;fill:#0004d6;stroke-width:0.264583"
       id="circleStar47" /><path
       d="m 180.81429,46.868974 a 0.75077206,0.75077206 0 0 0 -0.53072,0.219625 0.75077206,0.75077206 0 0 0 -0.22014,0.531233 0.75077206,0.75077206 0 0 0 0.22014,0.530717 0.75077206,0.75077206 0 0 0 0.53072,0.219625 0.75077206,0.75077206 0 0 0 0.53071,-0.219625 0.75077206,0.75077206 0 0 0 0.22014,-0.530717 0.75077206,0.75077206 0 0 0 -0.10076,-0.375687 0.75077206,0.75077206 0 0 0 -0.27492,-0.274919 0.75077206,0.75077206 0 0 0 -0.37517,-0.100252 z"
       style="display:inline;fill:#0004d6;stroke-width:0.264583"
       id="circleStar48" /><path
       d="m 196.81279,53.489758 a 0.75077206,0.75077206 0 0 0 -0.53071,0.219625 0.75077206,0.75077206 0 0 0 -0.22015,0.531234 0.75077206,0.75077206 0 0 0 0.22015,0.530717 0.75077206,0.75077206 0 0 0 0.53071,0.220141 0.75077206,0.75077206 0 0 0 0.75086,-0.750858 0.75077206,0.75077206 0 0 0 -0.0574,-0.287321 0.75077206,0.75077206 0 0 0 -0.16278,-0.243913 0.75077206,0.75077206 0 0 0 -0.2434,-0.162781 0.75077206,0.75077206 0 0 0 -0.28732,-0.05684 z"
       style="display:inline;fill:#0004d6;stroke-width:0.264583"
       id="circleStar49" /><path
       d="m 196.81279,53.489758 a 0.75077206,0.75077206 0 0 1 0.28732,0.05684 0.75077206,0.75077206 0 0 1 0.2434,0.162781 0.75077206,0.75077206 0 0 1 0.16278,0.243913 0.75077206,0.75077206 0 0 1 0.0574,0.287321 0.75077206,0.75077206 0 0 1 -0.75086,0.750858 0.75077206,0.75077206 0 0 1 -0.53071,-0.220141 0.75077206,0.75077206 0 0 1 -0.22015,-0.530717 0.75077206,0.75077206 0 0 1 0.22015,-0.531234 0.75077206,0.75077206 0 0 1 0.53071,-0.219625 z"
       style="display:inline;fill:#0004d6;stroke-width:0.264583"
       id="circleStar50" /><path
       d="m 182.83535,105.60337 a 0.75077206,0.75077206 0 0 0 -0.75034,0.75086 0.75077206,0.75077206 0 0 0 0.75034,0.75034 0.75077206,0.75077206 0 0 0 0.53124,-0.21962 0.75077206,0.75077206 0 0 0 0.21962,-0.53072 0.75077206,0.75077206 0 0 0 -0.10025,-0.37569 0.75077206,0.75077206 0 0 0 -0.27492,-0.27491 0.75077206,0.75077206 0 0 0 -0.37569,-0.10026 z"
       style="display:inline;fill:#0004d6;stroke-width:0.264583"
       id="circleStar51" /><path
       d="m 182.83535,105.60337 a 0.75077206,0.75077206 0 0 1 0.37569,0.10026 0.75077206,0.75077206 0 0 1 0.27492,0.27491 0.75077206,0.75077206 0 0 1 0.10025,0.37569 0.75077206,0.75077206 0 0 1 -0.21962,0.53072 0.75077206,0.75077206 0 0 1 -0.53124,0.21962 0.75077206,0.75077206 0 0 1 -0.75034,-0.75034 0.75077206,0.75077206 0 0 1 0.75034,-0.75086 z"
       style="display:inline;fill:#0004d6;stroke-width:0.264583"
       id="circleStar52" /><path
       d="m 192.12936,100.28535 a 0.75077206,0.75077206 0 0 0 -0.53072,0.22014 0.75077206,0.75077206 0 0 0 -0.21962,0.53072 0.75077206,0.75077206 0 0 0 0.21962,0.53123 0.75077206,0.75077206 0 0 0 0.53072,0.21963 0.75077206,0.75077206 0 0 0 0.75086,-0.75086 0.75077206,0.75077206 0 0 0 -0.0568,-0.28732 0.75077206,0.75077206 0 0 0 -0.16278,-0.2434 0.75077206,0.75077206 0 0 0 -0.24391,-0.16278 0.75077206,0.75077206 0 0 0 -0.28732,-0.0574 z"
       style="display:inline;fill:#0004d6;stroke-width:0.264583"
       id="circleStar53" /><path
       d="m 133.03426,95.187988 a 0.75077206,0.75077206 0 0 0 -0.53072,0.219625 0.75077206,0.75077206 0 0 0 -0.22014,0.530717 0.75077206,0.75077206 0 0 0 0.22014,0.531234 0.75077206,0.75077206 0 0 0 0.53072,0.219625 0.75077206,0.75077206 0 0 0 0.75086,-0.750859 0.75077206,0.75077206 0 0 0 -0.0574,-0.287321 0.75077206,0.75077206 0 0 0 -0.16226,-0.243396 0.75077206,0.75077206 0 0 0 -0.24391,-0.162781 0.75077206,0.75077206 0 0 0 -0.28732,-0.05684 z"
       style="display:inline;fill:#0004d6;stroke-width:0.264583"
       id="circleStar54" /><path
       d="m 184.63628,141.02292 a 0.75077206,0.75077206 0 0 0 -0.53072,0.22014 0.75077206,0.75077206 0 0 0 -0.22014,0.53072 0.75077206,0.75077206 0 0 0 0.22014,0.53071 0.75077206,0.75077206 0 0 0 0.53072,0.22014 0.75077206,0.75077206 0 0 0 0.53071,-0.22014 0.75077206,0.75077206 0 0 0 0.22014,-0.53071 0.75077206,0.75077206 0 0 0 -0.10077,-0.37569 0.75077206,0.75077206 0 0 0 -0.27491,-0.2744 0.75077206,0.75077206 0 0 0 -0.37517,-0.10077 z"
       style="display:inline;fill:#0004d6;stroke-width:0.264583"
       id="circleStar55" /><path
       d="m 184.63628,141.02292 a 0.75077206,0.75077206 0 0 1 0.37517,0.10077 0.75077206,0.75077206 0 0 1 0.27491,0.2744 0.75077206,0.75077206 0 0 1 0.10077,0.37569 0.75077206,0.75077206 0 0 1 -0.22014,0.53071 0.75077206,0.75077206 0 0 1 -0.53071,0.22014 0.75077206,0.75077206 0 0 1 -0.53072,-0.22014 0.75077206,0.75077206 0 0 1 -0.22014,-0.53071 0.75077206,0.75077206 0 0 1 0.22014,-0.53072 0.75077206,0.75077206 0 0 1 0.53072,-0.22014 z"
       style="display:inline;fill:#0004d6;stroke-width:0.264583"
       id="circleStar56" /><path
       d="m 193.36753,196.05625 a 0.75077206,0.75077206 0 0 0 -0.53072,0.22014 0.75077206,0.75077206 0 0 0 -0.22014,0.53072 0.75077206,0.75077206 0 0 0 0.22014,0.53072 0.75077206,0.75077206 0 0 0 0.53072,0.22014 0.75077206,0.75077206 0 0 0 0.75085,-0.75086 0.75077206,0.75077206 0 0 0 -0.0574,-0.28732 0.75077206,0.75077206 0 0 0 -0.16278,-0.2434 0.75077206,0.75077206 0 0 0 -0.24339,-0.16278 0.75077206,0.75077206 0 0 0 -0.28732,-0.0574 z"
       style="display:inline;fill:#0004d6;stroke-width:0.264583"
       id="circleStar57" /><path
       d="m 195.21961,170.39167 a 0.75077206,0.75077206 0 0 0 -0.75086,0.75086 0.75077206,0.75077206 0 0 0 0.75086,0.75085 0.75077206,0.75077206 0 0 0 0.53072,-0.22014 0.75077206,0.75077206 0 0 0 0.22014,-0.53071 0.75077206,0.75077206 0 0 0 -0.10077,-0.37569 0.75077206,0.75077206 0 0 0 -0.27492,-0.2744 0.75077206,0.75077206 0 0 0 -0.37517,-0.10077 z"
       style="display:inline;fill:#0004d6;stroke-width:0.264583"
       id="circleStar58" /><path
       d="m 195.21961,170.39167 a 0.75077206,0.75077206 0 0 1 0.37517,0.10077 0.75077206,0.75077206 0 0 1 0.27492,0.2744 0.75077206,0.75077206 0 0 1 0.10077,0.37569 0.75077206,0.75077206 0 0 1 -0.22014,0.53071 0.75077206,0.75077206 0 0 1 -0.53072,0.22014 0.75077206,0.75077206 0 0 1 -0.75086,-0.75085 0.75077206,0.75077206 0 0 1 0.75086,-0.75086 z"
       style="display:inline;fill:#0004d6;stroke-width:0.264583"
       id="circleStar59" /><path
       d="m 121.93003,169.06875 a 0.75077206,0.75077206 0 0 0 -0.53072,0.22014 0.75077206,0.75077206 0 0 0 -0.22014,0.53072 0.75077206,0.75077206 0 0 0 0.22014,0.53072 0.75077206,0.75077206 0 0 0 0.53072,0.22014 0.75077206,0.75077206 0 0 0 0.75085,-0.75086 0.75077206,0.75077206 0 0 0 -0.0574,-0.28732 0.75077206,0.75077206 0 0 0 -0.16278,-0.2434 0.75077206,0.75077206 0 0 0 -0.24339,-0.16278 0.75077206,0.75077206 0 0 0 -0.28732,-0.0574 z"
       style="display:inline;fill:#0004d6;stroke-width:0.264583"
       id="circleStar60" /><path
       d="m 132.77794,202.67083 a 0.75077206,0.75077206 0 0 0 -0.75086,0.75086 0.75077206,0.75077206 0 0 0 0.75086,0.75086 0.75077206,0.75077206 0 0 0 0.53072,-0.22014 0.75077206,0.75077206 0 0 0 0.22014,-0.53072 0.75077206,0.75077206 0 0 0 -0.10077,-0.37569 0.75077206,0.75077206 0 0 0 -0.27492,-0.2744 0.75077206,0.75077206 0 0 0 -0.37517,-0.10077 z"
       style="display:inline;fill:#0004d6;stroke-width:0.264583"
       id="circleStar61" /><path
       d="m 85.682109,229.39375 a 0.75077206,0.75077206 0 0 0 -0.530717,0.22014 0.75077206,0.75077206 0 0 0 -0.220142,0.53072 0.75077206,0.75077206 0 0 0 0.220142,0.53072 0.75077206,0.75077206 0 0 0 0.530717,0.22014 0.75077206,0.75077206 0 0 0 0.750858,-0.75086 0.75077206,0.75077206 0 0 0 -0.05736,-0.28732 0.75077206,0.75077206 0 0 0 -0.16278,-0.2434 0.75077206,0.75077206 0 0 0 -0.243396,-0.16278 0.75077206,0.75077206 0 0 0 -0.287321,-0.0574 z"
       style="display:inline;fill:#0004d6;stroke-width:0.264583"
       id="circleStar62" /><path
       d="m 53.932109,234.95 a 0.75077206,0.75077206 0 0 0 -0.530717,0.22014 0.75077206,0.75077206 0 0 0 -0.220142,0.53072 0.75077206,0.75077206 0 0 0 0.220142,0.53072 0.75077206,0.75077206 0 0 0 0.530717,0.22014 0.75077206,0.75077206 0 0 0 0.530717,-0.22014 0.75077206,0.75077206 0 0 0 0.220141,-0.53072 0.75077206,0.75077206 0 0 0 -0.100769,-0.37569 0.75077206,0.75077206 0 0 0 -0.274919,-0.2744 0.75077206,0.75077206 0 0 0 -0.37517,-0.10077 z"
       style="display:inline;fill:#0004d6;stroke-width:0.264583"
       id="circleStar63" /><path
       d="m 135.95294,233.89167 a 0.75077206,0.75077206 0 0 0 -0.53072,0.22014 0.75077206,0.75077206 0 0 0 -0.22014,0.53072 0.75077206,0.75077206 0 0 0 0.22014,0.53071 0.75077206,0.75077206 0 0 0 0.53072,0.22014 0.75077206,0.75077206 0 0 0 0.75086,-0.75085 0.75077206,0.75077206 0 0 0 -0.0574,-0.28733 0.75077206,0.75077206 0 0 0 -0.16278,-0.24339 0.75077206,0.75077206 0 0 0 -0.2434,-0.16278 0.75077206,0.75077206 0 0 0 -0.28732,-0.0574 z"
       style="display:inline;fill:#0004d6;stroke-width:0.264583"
       id="circleStar64" /><path
       d="m 103.93836,42.8625 a 0.75077206,0.75077206 0 0 0 -0.53072,0.220142 0.75077206,0.75077206 0 0 0 -0.22014,0.530717 0.75077206,0.75077206 0 0 0 0.22014,0.530717 0.75077206,0.75077206 0 0 0 0.53072,0.220141 0.75077206,0.75077206 0 0 0 0.75086,-0.750858 0.75077206,0.75077206 0 0 0 -0.0574,-0.287321 0.75077206,0.75077206 0 0 0 -0.16278,-0.243396 0.75077206,0.75077206 0 0 0 -0.2434,-0.162781 0.75077206,0.75077206 0 0 0 -0.28732,-0.05736 z"
       style="display:inline;fill:#0004d6;stroke-width:0.264583"
       id="circleStar65" /><path
       d="m 74.040442,55.033333 a 0.75077206,0.75077206 0 0 0 -0.530717,0.220142 0.75077206,0.75077206 0 0 0 -0.220142,0.530717 0.75077206,0.75077206 0 0 0 0.220142,0.530717 0.75077206,0.75077206 0 0 0 0.530717,0.220141 0.75077206,0.75077206 0 0 0 0.750858,-0.750858 0.75077206,0.75077206 0 0 0 -0.05736,-0.287321 0.75077206,0.75077206 0 0 0 -0.162781,-0.243396 0.75077206,0.75077206 0 0 0 -0.243396,-0.162781 0.75077206,0.75077206 0 0 0 -0.287321,-0.05736 z"
       style="display:inline;fill:#0004d6;stroke-width:0.264583"
       id="circleStar66" /><path
       d="m 111.61128,85.725 a 0.75077206,0.75077206 0 0 0 -0.53072,0.220142 0.75077206,0.75077206 0 0 0 -0.22014,0.530717 0.75077206,0.75077206 0 0 0 0.22014,0.530717 0.75077206,0.75077206 0 0 0 0.53072,0.220141 0.75077206,0.75077206 0 0 0 0.75085,-0.750858 0.75077206,0.75077206 0 0 0 -0.0574,-0.287321 0.75077206,0.75077206 0 0 0 -0.16278,-0.243396 0.75077206,0.75077206 0 0 0 -0.24339,-0.162781 0.75077206,0.75077206 0 0 0 -0.28732,-0.05736 z"
       style="display:inline;fill:#0004d6;stroke-width:0.264583"
       id="circleStar67" /><path
       d="m 120.60711,163.5125 a 0.75077206,0.75077206 0 0 0 -0.75086,0.75086 0.75077206,0.75077206 0 0 0 0.75086,0.75086 0.75077206,0.75077206 0 0 0 0.75086,-0.75086 0.75077206,0.75077206 0 0 0 -0.0574,-0.28732 0.75077206,0.75077206 0 0 0 -0.16278,-0.2434 0.75077206,0.75077206 0 0 0 -0.2434,-0.16278 0.75077206,0.75077206 0 0 0 -0.28732,-0.0574 z"
       style="display:inline;fill:#0004d6;stroke-width:0.264583"
       id="circleStar68" /><path
       d="m 53.402942,151.07708 a 0.75077206,0.75077206 0 0 0 -0.750859,0.75086 0.75077206,0.75077206 0 0 0 0.750859,0.75086 0.75077206,0.75077206 0 0 0 0.530717,-0.22014 0.75077206,0.75077206 0 0 0 0.220141,-0.53072 0.75077206,0.75077206 0 0 0 -0.100769,-0.37569 0.75077206,0.75077206 0 0 0 -0.274918,-0.2744 0.75077206,0.75077206 0 0 0 -0.375171,-0.10077 z"
       style="display:inline;fill:#0004d6;stroke-width:0.264583"
       id="circleStar69" /><path
       d="m 170.61336,213.78333 a 0.75077206,0.75077206 0 0 0 -0.53072,0.22014 0.75077206,0.75077206 0 0 0 -0.22014,0.53072 0.75077206,0.75077206 0 0 0 0.22014,0.53072 0.75077206,0.75077206 0 0 0 0.53072,0.22014 0.75077206,0.75077206 0 0 0 0.53072,-0.22014 0.75077206,0.75077206 0 0 0 0.22014,-0.53072 0.75077206,0.75077206 0 0 0 -0.10077,-0.37569 0.75077206,0.75077206 0 0 0 -0.27492,-0.2744 0.75077206,0.75077206 0 0 0 -0.37517,-0.10077 z"
       style="display:inline;fill:#0004d6;stroke-width:0.264583"
       id="circleStar70" /><path
       d="m 184.90086,209.81458 a 0.75077206,0.75077206 0 0 0 -0.53072,0.22014 0.75077206,0.75077206 0 0 0 -0.22014,0.53072 0.75077206,0.75077206 0 0 0 0.22014,0.53072 0.75077206,0.75077206 0 0 0 0.53072,0.22014 0.75077206,0.75077206 0 0 0 0.75086,-0.75086 0.75077206,0.75077206 0 0 0 -0.0574,-0.28732 0.75077206,0.75077206 0 0 0 -0.16278,-0.2434 0.75077206,0.75077206 0 0 0 -0.2434,-0.16278 0.75077206,0.75077206 0 0 0 -0.28732,-0.0574 z"
       style="display:inline;fill:#0004d6;stroke-width:0.264583"
       id="circleStar71" /><path
       d="m 182.83319,194.75013 a 0.75077206,0.75077206 0 0 1 0.28732,0.0574 0.75077206,0.75077206 0 0 1 0.2434,0.16278 0.75077206,0.75077206 0 0 1 0.16278,0.2434 0.75077206,0.75077206 0 0 1 0.0574,0.28732 0.75077206,0.75077206 0 0 1 -0.75086,0.75086 0.75077206,0.75077206 0 0 1 -0.53072,-0.22014 0.75077206,0.75077206 0 0 1 -0.22014,-0.53072 0.75077206,0.75077206 0 0 1 0.22014,-0.53072 0.75077206,0.75077206 0 0 1 0.53072,-0.22014 z"
       style="display:inline;fill:#0004d6;stroke-width:0.264583"
       id="circleStar72" /><path
       d="m 180.13836,223.30833 a 0.75077206,0.75077206 0 0 0 -0.53072,0.22014 0.75077206,0.75077206 0 0 0 -0.22014,0.53072 0.75077206,0.75077206 0 0 0 0.22014,0.53072 0.75077206,0.75077206 0 0 0 0.53072,0.22014 0.75077206,0.75077206 0 0 0 0.53072,-0.22014 0.75077206,0.75077206 0 0 0 0.22014,-0.53072 0.75077206,0.75077206 0 0 0 -0.10077,-0.37569 0.75077206,0.75077206 0 0 0 -0.27492,-0.2744 0.75077206,0.75077206 0 0 0 -0.37517,-0.10077 z"
       style="display:inline;fill:#0004d6;stroke-width:0.264583"
       id="circleStar73" /><path
       d="m 180.13836,223.30833 a 0.75077206,0.75077206 0 0 1 0.37517,0.10077 0.75077206,0.75077206 0 0 1 0.27492,0.2744 0.75077206,0.75077206 0 0 1 0.10077,0.37569 0.75077206,0.75077206 0 0 1 -0.22014,0.53072 0.75077206,0.75077206 0 0 1 -0.53072,0.22014 0.75077206,0.75077206 0 0 1 -0.53072,-0.22014 0.75077206,0.75077206 0 0 1 -0.22014,-0.53072 0.75077206,0.75077206 0 0 1 0.22014,-0.53072 0.75077206,0.75077206 0 0 1 0.53072,-0.22014 z"
       style="display:inline;fill:#0004d6;stroke-width:0.264583"
       id="circleStar74" /><path
       d="m 11.598775,216.95833 a 0.75077206,0.75077206 0 0 0 -0.530717,0.22014 0.75077206,0.75077206 0 0 0 -0.220141,0.53072 0.75077206,0.75077206 0 0 0 0.220141,0.53072 0.75077206,0.75077206 0 0 0 0.530717,0.22014 0.75077206,0.75077206 0 0 0 0.750859,-0.75086 0.75077206,0.75077206 0 0 0 -0.05736,-0.28732 0.75077206,0.75077206 0 0 0 -0.162781,-0.2434 0.75077206,0.75077206 0 0 0 -0.243396,-0.16278 0.75077206,0.75077206 0 0 0 -0.287321,-0.0574 z"
       style="display:inline;fill:#0004d6;stroke-width:0.264583"
       id="circleStar75" /><path
       d="m 27.209192,160.50958 a 3.503603,3.7538602 0 0 0 -1.751831,0.50281 3.503603,3.7538602 0 0 0 -1.282609,1.37408 3.503603,3.7538602 0 0 0 -0.469222,1.87689 3.503603,3.7538602 0 0 0 0.469222,1.87689 3.503603,3.7538602 0 0 0 1.282609,1.37407 3.503603,3.7538602 0 0 0 1.751831,0.50281 3.503603,3.7538602 0 0 0 1.751831,-0.50281 3.503603,3.7538602 0 0 0 1.282092,-1.37407 3.503603,3.7538602 0 0 0 0.469739,-1.87689 3.503603,3.7538602 0 0 0 -0.08785,-0.83561 3.503603,3.7538602 0 0 0 -0.259416,-0.79323 3.503603,3.7538602 0 0 0 -0.417028,-0.71159 3.503603,3.7538602 0 0 0 -0.555005,-0.59479 3.503603,3.7538602 0 0 0 -0.664042,-0.447 3.503603,3.7538602 0 0 0 -0.740524,-0.27751 3.503603,3.7538602 0 0 0 -0.779797,-0.0941 z"
       style="display:inline;fill:url(#radialGradient7);stroke-width:1.27806"
       id="planetThing" /></g><g
     id="layer6"
     inkscape:label="Ship"
     sodipodi:insensitive="true"><g
       inkscape:groupmode="layer"
       id="g189"
       inkscape:label="UpperRightPylon"
       style="display:inline"><path
         style="display:inline;fill:#ff0000;stroke:none;stroke-width:0.264583px;stroke-linecap:butt;stroke-linejoin:miter;stroke-opacity:1"
         d="m 109.65627,217.9309 4.6073,-4.87435 v -2.56479 l -4.6073,4.87435 z"
         id="path196"
         sodipodi:nodetypes="ccccc"
         inkscape:label="RedPylon" /><rect
         style="display:inline;vector-effect:non-scaling-stroke;fill:#ffffff;fill-opacity:1;stroke:none;stroke-width:0.264583;stroke-dasharray:none;stroke-opacity:1;-inkscape-stroke:hairline"
         id="rect188"
         width="0.93264884"
         height="4.4767156"
         x="113.75301"
         y="210.48546"
         inkscape:label="WhiteBar" /></g><g
       inkscape:groupmode="layer"
       id="layer5"
       inkscape:label="UpperLeftPylon"
       style="display:inline"><path
         style="display:inline;fill:#ff0000;stroke:none;stroke-width:0.264583px;stroke-linecap:butt;stroke-linejoin:miter;stroke-opacity:1"
         d="m 109.92267,215.18183 -4.6073,-4.65105 v 2.56479 l 4.74686,4.84644 z"
         id="path197"
         sodipodi:nodetypes="ccccc"
         inkscape:label="RedPylon" /><rect
         style="display:inline;vector-effect:non-scaling-stroke;fill:#ffffff;fill-opacity:1;stroke:none;stroke-width:0.264583;stroke-dasharray:none;stroke-opacity:1;-inkscape-stroke:hairline"
         id="rect185"
         width="0.93264884"
         height="4.4767156"
         x="104.90487"
         y="210.4964"
         inkscape:label="WhiteBar" /></g><g
       inkscape:groupmode="layer"
       id="g196"
       inkscape:label="LowerRightPylon"
       style="display:inline"><path
         style="fill:#ff0000;stroke:none;stroke-width:0.264583px;stroke-linecap:butt;stroke-linejoin:miter;stroke-opacity:1"
         d="m 110.26818,217.95255 4.71895,5.06973 v -3.09395 l -4.71895,-4.65105 z"
         id="path194"
         sodipodi:nodetypes="ccccc"
         inkscape:label="RedPylon" /><rect
         style="vector-effect:non-scaling-stroke;fill:#ffffff;fill-opacity:1;stroke:none;stroke-width:0.264583;stroke-dasharray:none;stroke-opacity:1;-inkscape-stroke:hairline"
         id="rect211"
         width="0.78343964"
         height="5.3534088"
         x="114.51891"
         y="217.75096"
         inkscape:label="WhiteBar" /></g><g
       inkscape:groupmode="layer"
       id="g193"
       inkscape:label="LowerLeftPylon"
       style="display:inline;fill:#ffffff"><path
         style="fill:#ff0000;stroke:none;stroke-width:0.264583px;stroke-linecap:butt;stroke-linejoin:miter;stroke-opacity:1"
         d="m 109.48406,215.08071 -0.0279,3.03812 -4.71895,4.89496 v -3.06512 z"
         id="path210"
         inkscape:label="RedPylon" /><rect
         style="display:inline;vector-effect:non-scaling-stroke;fill:#ffffff;fill-opacity:1;stroke:none;stroke-width:0.264583;stroke-dasharray:none;stroke-opacity:1;-inkscape-stroke:hairline"
         id="rect210"
         width="0.78343964"
         height="5.3533936"
         x="104.28967"
         y="217.75098"
         inkscape:label="WhiteBar" /></g><g
       inkscape:groupmode="layer"
       id="layer3"
       inkscape:label="ShipBody"
       style="display:inline"><path
         style="display:inline;vector-effect:non-scaling-stroke;fill:#ff0000;stroke:none;stroke-width:0.264583;stroke-linecap:butt;stroke-linejoin:miter;stroke-dasharray:none;stroke-opacity:1;-inkscape-stroke:hairline"
         d="m 108.56032,210.49629 h 0.93265 v -1.90261 h 0.70882 v 1.90261 h 0.914 v 11.78868 h -2.55547 z"
         id="path175"
         sodipodi:nodetypes="ccccccccc"
         inkscape:label="Fusealage" /><rect
         style="display:inline;vector-effect:non-scaling-stroke;fill:#ffff00;fill-opacity:1;stroke:#ff0000;stroke-width:0.264583;stroke-dasharray:none;stroke-opacity:1;-inkscape-stroke:hairline"
         id="rect182"
         width="0.70881999"
         height="2.7979465"
         x="109.49297"
         y="217.71542"
         inkscape:label="BottomCenterWhite" /><rect
         style="display:inline;vector-effect:non-scaling-stroke;fill:#f9f9f9;fill-opacity:1;stroke:#ff0000;stroke-width:0.264583;stroke-dasharray:none;stroke-opacity:1;-inkscape-stroke:hairline"
         id="rect181"
         width="0.70881999"
         height="3.4508007"
         x="109.49297"
         y="212.34337"
         inkscape:label="TopCenterWhite" /><rect
         style="vector-effect:non-scaling-stroke;fill:#ffff00;fill-opacity:1;stroke:none;stroke-width:0.264583;stroke-dasharray:none;stroke-opacity:1;-inkscape-stroke:hairline"
         id="rect183"
         width="0.70881999"
         height="1.8093387"
         x="109.49297"
         y="213.16409"
         inkscape:label="TopCenterYellow" /><rect
         style="vector-effect:non-scaling-stroke;fill:#f9f9f9;fill-opacity:1;stroke:none;stroke-width:0.264583;stroke-dasharray:none;stroke-opacity:1;-inkscape-stroke:hairline"
         id="rect184"
         width="0.78341788"
         height="1.6228091"
         x="107.7769"
         y="221.39006"
         inkscape:label="BottomLeft" /><rect
         style="vector-effect:non-scaling-stroke;fill:#f9f9f9;fill-opacity:1;stroke:none;stroke-width:0.264583;stroke-dasharray:none;stroke-opacity:1;-inkscape-stroke:hairline"
         id="rect184-6"
         width="0.78341788"
         height="1.6228091"
         x="111.13966"
         y="221.39006"
         inkscape:label="BottomRight" /><rect
         style="display:inline;vector-effect:non-scaling-stroke;fill:#f9f9f9;fill-opacity:1;stroke:none;stroke-width:0.264583;stroke-dasharray:none;stroke-opacity:1;-inkscape-stroke:hairline"
         id="rect184-6-6"
         width="0.78341788"
         height="1.6228091"
         x="109.45828"
         y="221.39006"
         inkscape:label="BottomCenter" /></g></g></svg>
